<?xml version="1.0" standalone="no"?>
<!DOCTYPE svg PUBLIC "-//W3C//DTD SVG 20010904//EN"
 "http://www.w3.org/TR/2001/REC-SVG-20010904/DTD/svg10.dtd">
<svg version="1.0" xmlns="http://www.w3.org/2000/svg"
 width="380.000000pt" height="380.000000pt" viewBox="0 0 380.000000 380.000000"
 preserveAspectRatio="xMidYMid meet">
<metadata>
Created by potrace 1.11, written by Peter Selinger 2001-2013
</metadata>
<g transform="translate(0.000000,380.000000) scale(0.100000,-0.100000)"
fill="#000000" stroke="none">
<path d="M255 3660 c-1 -3 27 -68 62 -145 36 -77 163 -351 283 -610 281 -606
340 -735 340 -739 0 -2 29 -64 64 -137 91 -190 134 -282 256 -549 59 -129 126
-275 150 -325 35 -75 117 -251 238 -515 63 -136 183 -395 213 -457 19 -40 39
-73 45 -73 6 0 21 21 32 48 11 26 76 169 145 317 68 149 136 295 149 325 14
30 53 114 86 185 33 72 76 166 97 210 20 44 56 123 80 176 51 113 268 583 332
719 25 52 76 163 113 245 37 83 86 188 108 235 178 384 491 1068 494 1080 3
12 -206 14 -1640 15 -904 0 -1645 -2 -1647 -5z m455 -14 c0 -3 -4 -8 -10 -11
-5 -3 -10 -1 -10 4 0 6 5 11 10 11 6 0 10 -2 10 -4z m360 -6 c0 -5 -2 -10 -4
-10 -3 0 -8 5 -11 10 -3 6 -1 10 4 10 6 0 11 -4 11 -10z m1080 6 c0 -2 -7 -7
-16 -10 -8 -3 -12 -2 -9 4 6 10 25 14 25 6z m1220 0 c0 -3 -4 -8 -10 -11 -5
-3 -10 -1 -10 4 0 6 5 11 10 11 6 0 10 -2 10 -4z m-2889 -21 c5 4 6 -2 2 -11
-4 -10 -2 -15 4 -11 5 3 9 -4 9 -16 -1 -12 4 -21 11 -20 7 2 10 -3 7 -10 -6
-17 24 -89 35 -82 5 3 7 -4 4 -15 -5 -18 -14 -20 -88 -20 l-82 0 1 29 c1 16 4
27 7 25 11 -6 32 54 23 67 -4 8 -3 10 5 5 8 -5 18 7 29 34 9 24 18 38 20 31 2
-6 8 -9 13 -6z m223 -18 c4 4 4 -1 0 -11 -6 -15 -4 -17 6 -11 9 6 11 4 5 -4
-9 -15 24 -93 36 -85 5 3 6 -3 2 -12 -5 -13 -3 -15 7 -9 8 5 11 4 7 -2 -9 -14
13 -74 24 -67 5 3 6 -3 2 -12 -5 -13 -3 -15 7 -9 9 6 11 4 5 -5 -9 -14 44
-132 56 -125 4 3 5 -4 2 -15 -5 -19 -14 -20 -193 -20 l-187 0 1 29 c1 16 4 27
7 25 11 -6 42 74 34 87 -5 8 -4 10 3 5 14 -8 36 40 26 56 -4 6 -3 8 3 5 13 -8
47 68 38 84 -5 8 -4 10 3 5 8 -4 24 17 44 59 29 59 33 63 43 45 6 -11 14 -17
19 -13z m411 0 c4 4 5 2 0 -6 -8 -14 33 -113 45 -106 3 2 6 -6 6 -18 -1 -15 5
-22 19 -22 14 0 20 7 19 22 0 12 3 20 7 18 10 -7 19 22 13 43 -4 12 -3 14 4 4
7 -10 12 -6 21 17 7 16 10 36 5 43 -4 7 -3 9 1 5 5 -4 14 2 21 14 11 21 11 21
22 -10 6 -18 16 -30 22 -26 5 3 7 0 5 -8 -3 -7 6 -39 20 -70 14 -32 25 -60 25
-63 0 -3 -43 -4 -95 -2 -52 2 -95 0 -95 -3 0 -23 32 -79 42 -73 7 5 8 3 3 -5
-9 -16 25 -92 38 -84 6 4 7 1 2 -6 -9 -15 34 -113 46 -105 5 3 6 -1 4 -9 -7
-17 44 -129 56 -122 5 4 6 0 4 -7 -7 -19 63 -161 75 -153 5 3 7 0 4 -9 -3 -8
2 -28 10 -45 9 -16 16 -32 16 -36 0 -3 -177 -5 -394 -5 l-393 0 1 29 c1 16 5
26 10 23 5 -3 6 2 3 12 -4 9 -3 15 2 12 11 -7 35 50 26 64 -3 6 -1 9 7 8 8 -2
13 6 12 19 0 12 3 20 6 18 11 -7 43 72 35 86 -5 7 -4 10 2 6 13 -8 58 87 48
104 -5 7 -4 10 2 6 13 -8 26 20 16 35 -3 6 -1 8 4 5 14 -9 55 86 47 110 -4 13
-3 14 4 5 7 -10 12 -6 21 17 7 16 10 35 5 42 -4 7 -3 10 3 6 13 -8 26 20 16
35 -3 6 -1 8 4 5 14 -9 37 48 27 64 -4 8 -3 10 4 5 8 -4 25 20 49 68 33 68 38
74 48 56 6 -12 15 -17 20 -13z m406 -2 c3 3 5 -5 5 -18 -1 -12 4 -21 11 -20 7
2 10 -3 7 -11 -7 -18 73 -192 87 -188 6 1 7 -3 4 -9 -8 -12 24 -91 34 -85 3 2
6 -9 7 -25 l1 -29 -187 0 -187 0 1 29 c1 16 5 26 10 23 5 -3 6 2 3 12 -4 9 -3
15 2 12 12 -8 55 90 46 105 -5 7 -4 10 2 6 13 -8 88 147 78 163 -5 9 -4 11 3
6 7 -4 18 7 29 29 16 34 18 34 28 15 6 -11 13 -18 16 -15z m209 -20 c6 4 7 -1
3 -11 -5 -13 -3 -15 7 -9 9 5 11 4 6 -4 -9 -13 12 -73 23 -67 3 2 7 -9 8 -25
l2 -29 -83 0 -83 0 1 29 c1 16 4 27 7 25 10 -6 19 24 13 44 -4 12 -3 14 4 4 7
-10 12 -6 21 17 7 16 10 35 5 42 -4 7 -3 10 4 5 6 -3 14 4 18 16 7 22 8 21 21
-10 7 -18 18 -30 23 -27z m191 40 c5 4 6 -2 2 -11 -4 -12 -3 -15 5 -10 7 4 10
2 7 -7 -8 -19 44 -129 57 -121 7 5 8 2 3 -5 -9 -16 25 -92 38 -84 6 4 7 1 2
-6 -4 -7 1 -31 11 -52 12 -28 20 -36 25 -27 5 8 8 1 6 -17 -1 -20 2 -29 11
-27 8 1 11 -2 7 -9 -8 -12 24 -91 35 -84 3 2 6 -6 6 -18 -1 -13 4 -21 12 -19
8 1 10 -2 7 -8 -8 -13 14 -72 24 -65 4 2 7 -6 7 -18 -1 -13 4 -21 12 -19 8 1
10 -2 7 -8 -10 -16 15 -71 28 -63 6 4 7 1 2 -7 -10 -16 45 -131 58 -123 6 4 7
1 2 -7 -10 -16 125 -291 138 -283 6 4 7 1 2 -6 -9 -16 25 -92 38 -84 6 4 7 1
2 -6 -10 -17 64 -183 78 -174 6 4 7 1 2 -6 -9 -15 34 -113 46 -105 5 3 6 -1 4
-9 -7 -16 33 -109 44 -103 4 3 7 -5 7 -17 -1 -13 4 -21 12 -19 8 1 11 -2 7 -8
-9 -14 4 -52 16 -45 5 3 6 -2 2 -11 -4 -11 -3 -15 4 -11 7 5 9 0 6 -13 -5 -20
-14 -20 -804 -20 -717 0 -799 2 -799 16 0 9 -5 12 -12 8 -7 -4 -8 -3 -4 5 4 6
12 8 18 5 8 -5 9 -1 5 10 -4 9 -3 15 2 12 12 -8 45 70 36 85 -6 8 -4 10 5 4
10 -6 12 -4 7 9 -4 9 -3 15 2 12 12 -8 55 90 46 105 -5 7 -4 10 2 6 14 -9 24
17 17 41 -4 12 -3 14 4 4 7 -10 12 -6 21 17 7 16 10 35 5 42 -4 7 -3 10 3 6
13 -8 26 20 16 35 -3 7 -1 8 5 4 11 -7 16 7 15 41 -1 7 3 11 7 8 11 -7 33 52
24 66 -4 7 -3 10 3 6 13 -8 47 68 38 84 -5 7 -4 10 2 6 13 -8 78 127 68 143
-5 9 -4 11 3 6 13 -8 33 30 153 294 44 96 77 180 74 188 -2 7 -1 11 4 8 12 -8
55 90 46 105 -6 8 -4 10 5 4 10 -6 12 -4 7 9 -4 9 -3 14 2 11 12 -7 25 31 16
45 -4 6 -1 9 7 8 8 -2 13 6 12 19 0 12 4 19 9 16 6 -4 8 1 4 11 -4 9 -3 15 2
12 5 -3 35 49 67 115 32 66 60 116 62 110 2 -6 8 -9 13 -6z m209 -20 c5 3 7 0
5 -8 -7 -17 44 -129 55 -122 4 3 6 -4 3 -15 -5 -18 -14 -20 -90 -20 -77 0 -84
2 -77 18 4 9 8 27 8 39 1 11 4 19 8 17 9 -6 21 34 13 46 -4 6 -1 9 7 8 8 -2
13 6 12 19 0 12 4 19 9 16 6 -4 8 1 4 11 -4 10 -3 15 3 11 6 -3 10 0 11 7 0 7
4 3 10 -10 5 -13 13 -21 19 -17z m219 -30 c5 3 7 -3 5 -12 -3 -10 2 -27 11
-38 l15 -20 -6 20 c-5 16 -4 17 4 5 6 -8 8 -18 5 -23 -7 -11 37 -108 47 -102
3 2 6 -6 6 -18 -1 -12 4 -21 11 -20 7 2 10 -3 7 -10 -6 -18 35 -109 46 -102 6
4 7 -2 3 -11 -5 -13 -3 -15 7 -9 9 5 11 4 6 -3 -5 -9 -65 -12 -200 -12 l-193
0 1 29 c1 16 4 27 8 25 10 -7 40 67 34 83 -3 7 0 12 7 10 7 -1 12 8 11 20 0
12 3 20 6 18 11 -7 53 92 45 106 -5 7 -4 10 2 6 6 -4 23 21 39 57 l29 64 18
-34 c10 -19 22 -32 26 -29z m222 -57 l36 -78 -87 0 -87 0 1 29 c1 16 4 27 8
25 10 -6 50 88 43 103 -2 8 -1 11 4 8 5 -3 13 5 17 17 l7 23 11 -25 c5 -14 27
-60 47 -102z m334 -241 c4 5 5 3 1 -4 -8 -15 23 -95 35 -87 5 3 6 -3 2 -12 -5
-13 -3 -15 7 -9 9 6 11 4 5 -4 -9 -15 34 -113 46 -105 5 3 6 -1 3 -9 -5 -15
39 -111 48 -102 2 3 4 -5 4 -18 -1 -13 4 -21 12 -19 8 1 11 -2 7 -9 -9 -13 24
-91 35 -84 5 3 6 -4 3 -15 -5 -20 -14 -20 -399 -20 -217 0 -394 2 -394 5 0 3
9 23 20 45 22 44 25 54 10 45 -6 -3 -7 1 -4 9 3 9 10 13 15 11 12 -8 82 134
75 152 -3 8 -2 12 3 9 12 -8 55 90 46 105 -6 8 -4 10 5 4 10 -6 12 -4 7 9 -4
9 -3 15 3 11 11 -7 52 84 45 102 -2 8 -1 12 4 9 11 -7 35 50 26 64 -3 6 -1 9
7 8 8 -2 13 6 12 19 0 13 2 21 4 18 9 -9 53 87 48 102 -3 8 -2 12 3 9 12 -8
45 70 36 85 -5 7 -4 10 3 5 6 -3 14 4 18 16 6 19 23 -10 99 -165 50 -103 95
-184 100 -180z m57 309 c7 5 8 3 3 -5 -8 -14 24 -93 35 -86 3 2 6 -6 6 -18 -1
-13 4 -21 12 -19 8 1 11 -2 7 -8 -3 -6 -47 -10 -100 -10 -53 0 -97 4 -100 10
-4 6 -1 9 7 8 8 -2 13 6 12 19 0 12 3 20 6 18 11 -7 43 72 35 86 -5 8 -4 10 4
5 7 -5 16 4 23 26 l12 33 13 -33 c8 -20 18 -30 25 -26z m310 -218 c5 1 6 -2 3
-8 -4 -6 -1 -25 6 -41 9 -23 14 -27 21 -17 7 10 8 8 4 -4 -6 -21 3 -50 14 -43
5 3 6 -4 3 -15 -5 -19 -14 -20 -193 -20 l-187 0 1 29 c1 16 4 27 7 25 10 -6
71 135 63 147 -4 7 -3 9 3 6 14 -9 37 48 27 64 -4 7 -3 10 3 6 14 -9 24 17 17
41 -4 12 -3 14 4 4 7 -10 12 -6 21 17 7 16 10 35 5 42 -5 8 -3 9 5 5 8 -5 14
0 18 15 5 19 20 -3 76 -116 38 -77 73 -139 79 -137z m93 239 c4 4 5 2 0 -5
-11 -20 25 -97 38 -80 6 9 7 8 3 -4 -7 -22 3 -50 14 -43 5 3 12 0 16 -6 4 -8
3 -9 -4 -5 -7 4 -12 1 -12 -8 0 -13 -15 -16 -84 -16 l-83 0 1 29 c1 16 4 27 7
25 11 -6 52 93 44 107 -5 7 -4 10 3 5 6 -3 14 3 18 16 l6 21 12 -22 c7 -12 16
-18 21 -14z m-2477 5 c2 -7 9 -9 14 -6 7 5 8 2 4 -5 -5 -7 -2 -26 5 -42 9 -23
14 -27 21 -17 7 10 8 8 4 -4 -6 -20 3 -50 13 -44 3 2 6 -9 7 -25 l1 -29 -82 0
c-74 0 -83 2 -88 20 -3 13 -1 18 6 13 7 -4 8 0 4 11 -4 9 -3 15 2 12 12 -8 55
90 46 105 -6 8 -4 10 5 4 10 -6 12 -4 7 7 -4 11 0 15 11 14 9 -2 18 -8 20 -14z
m153 -35 c-10 -9 -11 -8 -5 6 3 10 9 15 12 12 3 -3 0 -11 -7 -18z m-420 -20
c-10 -9 -11 -8 -5 6 3 10 9 15 12 12 3 -3 0 -11 -7 -18z m1230 0 c-10 -9 -11
-8 -5 6 3 10 9 15 12 12 3 -3 0 -11 -7 -18z m-420 -20 c-10 -9 -11 -8 -5 6 3
10 9 15 12 12 3 -3 0 -11 -7 -18z m-687 -3 c3 -8 2 -12 -4 -9 -6 3 -10 10 -10
16 0 14 7 11 14 -7z m666 -42 c0 -5 -7 -17 -15 -28 -14 -18 -14 -17 -4 9 12
27 19 34 19 19z m410 0 c0 -5 -7 -17 -15 -28 -14 -18 -14 -17 -4 9 12 27 19
34 19 19z m1421 -35 c-10 -9 -11 -8 -5 6 3 10 9 15 12 12 3 -3 0 -11 -7 -18z
m-1731 -290 c0 -4 5 -5 12 -1 7 5 8 3 3 -5 -8 -14 34 -113 45 -106 3 2 6 -6 6
-18 -1 -13 4 -21 12 -19 8 1 11 -2 7 -8 -6 -10 -195 -15 -195 -5 0 3 9 24 21
46 11 23 18 47 15 55 -3 8 -1 12 4 9 5 -3 18 12 30 34 24 48 26 62 4 35 -14
-18 -14 -18 -3 5 11 24 12 24 25 6 8 -10 14 -23 14 -28z m840 -57 c27 -55 50
-102 50 -105 0 -3 -40 -5 -89 -5 l-88 0 1 29 c1 16 4 27 7 25 10 -6 19 24 13
44 -4 12 -3 14 4 4 7 -10 12 -6 21 17 7 16 10 35 5 42 -4 7 -3 10 3 6 12 -8
26 20 17 34 -3 5 -3 9 0 9 3 0 28 -45 56 -100z m-1645 57 c4 4 5 2 0 -6 -8
-13 33 -113 44 -107 3 2 6 -9 7 -25 l1 -29 -88 0 c-49 0 -89 2 -89 5 0 3 21
47 47 100 42 84 49 92 58 75 6 -12 15 -17 20 -13z m2446 8 c5 3 6 0 3 -8 -5
-14 50 -137 61 -137 2 0 1 8 -2 17 -6 15 -5 16 9 3 9 -8 12 -16 7 -18 -5 -2
-9 -10 -9 -18 0 -11 -19 -14 -89 -14 l-88 0 1 29 c1 16 4 27 7 25 11 -6 52 93
44 107 -5 7 -4 10 3 5 6 -3 14 3 17 15 7 20 8 20 17 5 5 -9 13 -14 19 -11z
m-2520 -38 c-10 -9 -11 -8 -5 6 3 10 9 15 12 12 3 -3 0 -11 -7 -18z m1840 -10
c-10 -9 -11 -8 -5 6 3 10 9 15 12 12 3 -3 0 -11 -7 -18z m-1127 -13 c3 -8 2
-12 -4 -9 -6 3 -10 10 -10 16 0 14 7 11 14 -7z m220 -20 c3 -8 2 -12 -4 -9 -6
3 -10 10 -10 16 0 14 7 11 14 -7z m-963 -17 c-10 -9 -11 -8 -5 6 3 10 9 15 12
12 3 -3 0 -11 -7 -18z m820 0 c-10 -9 -11 -8 -5 6 3 10 9 15 12 12 3 -3 0 -11
-7 -18z m-836 -36 c-3 -6 -11 -11 -16 -11 -5 0 -4 6 3 14 14 16 24 13 13 -3z
m196 -24 c-10 -9 -11 -8 -5 6 3 10 9 15 12 12 3 -3 0 -11 -7 -18z m1619 -47
c-6 -11 -13 -20 -16 -20 -2 0 0 9 6 20 6 11 13 20 16 20 2 0 0 -9 -6 -20z
m-976 -26 c3 -8 2 -12 -4 -9 -6 3 -10 10 -10 16 0 14 7 11 14 -7z m127 -37
c-10 -9 -11 -8 -5 6 3 10 9 15 12 12 3 -3 0 -11 -7 -18z m-478 -154 c-4 -11
-3 -14 5 -9 7 4 15 1 18 -8 3 -9 10 -13 15 -10 5 3 6 -1 4 -9 -7 -17 44 -129
56 -122 5 4 6 0 4 -7 -3 -8 13 -56 36 -108 41 -96 58 -126 44 -80 -4 14 -4 22
0 18 4 -4 9 -25 11 -48 l3 -40 -189 0 c-157 0 -190 2 -190 14 0 8 -3 16 -7 19
-5 2 -3 3 4 1 15 -4 54 90 47 113 -4 14 -4 15 4 4 8 -11 11 -9 17 8 3 11 3 26
-1 32 -4 7 -3 9 2 6 6 -3 33 41 62 99 55 111 58 119 41 108 -8 -4 -8 0 0 15
14 25 23 28 14 4z m1482 -83 c21 -47 42 -91 48 -97 7 -10 -10 -13 -80 -13
l-90 0 1 29 c1 16 4 27 7 25 11 -6 52 93 44 107 -5 7 -4 10 2 6 13 -8 26 20
17 36 -5 8 -4 9 3 2 6 -5 27 -48 48 -95z m-1650 57 c4 4 5 2 1 -5 -5 -7 -2
-27 5 -43 9 -23 14 -27 21 -17 7 10 8 8 4 -4 -6 -20 3 -50 13 -44 3 2 6 -9 7
-25 l1 -29 -82 0 -82 0 1 29 c1 16 4 27 7 25 11 -6 52 93 44 107 -5 7 -4 10 3
5 6 -3 14 3 18 16 l6 21 12 -22 c7 -12 16 -18 21 -14z m406 -2 c3 3 5 -5 5
-18 -1 -12 4 -21 11 -20 7 2 10 -3 7 -10 -6 -17 24 -89 35 -82 5 3 7 -4 4 -15
-5 -18 -14 -20 -94 -20 -49 0 -91 5 -94 10 -4 6 -1 9 7 8 8 -2 13 6 12 19 0
12 3 20 6 18 11 -7 43 72 35 84 -4 7 -1 10 7 9 8 -2 13 6 12 19 0 12 3 20 8
17 4 -3 8 1 8 8 1 7 6 3 13 -10 7 -12 15 -20 18 -17z m1433 19 c4 -9 2 -13 -5
-8 -7 4 -10 1 -7 -7 3 -8 10 -13 16 -12 6 2 9 -3 6 -10 -6 -18 120 -280 131
-270 4 4 5 2 1 -5 -9 -15 12 -74 24 -67 5 3 6 -4 3 -15 -5 -19 -14 -20 -193
-20 -179 0 -188 1 -193 20 -3 13 -1 18 6 13 7 -4 8 0 4 11 -4 9 -3 15 2 12 12
-8 42 70 35 91 -4 14 -4 15 4 4 7 -10 14 -1 28 35 10 27 24 59 32 71 8 13 12
30 8 38 -3 9 -2 14 3 11 12 -8 45 70 36 85 -6 8 -4 10 5 4 10 -6 12 -4 7 8 -4
11 -1 15 14 12 10 -2 19 0 19 6 0 14 7 11 14 -7z m216 -39 c5 3 7 0 5 -8 -3
-7 6 -39 20 -70 14 -32 25 -60 25 -62 0 -3 -38 -5 -84 -5 l-83 0 1 29 c1 16 4
27 7 25 11 -6 42 74 34 87 -5 8 -4 10 4 5 7 -5 16 4 23 26 l12 33 13 -33 c7
-18 18 -30 23 -27z m-1499 12 c-10 -9 -11 -8 -5 6 3 10 9 15 12 12 3 -3 0 -11
-7 -18z m-430 -40 c-10 -9 -11 -8 -5 6 3 10 9 15 12 12 3 -3 0 -11 -7 -18z
m1840 -10 c-10 -9 -11 -8 -5 6 3 10 9 15 12 12 3 -3 0 -11 -7 -18z m113 7 c3
-8 2 -12 -4 -9 -6 3 -10 10 -10 16 0 14 7 11 14 -7z m-1973 -37 c-10 -9 -11
-8 -5 6 3 10 9 15 12 12 3 -3 0 -11 -7 -18z m400 -20 c-10 -9 -11 -8 -5 6 3
10 9 15 12 12 3 -3 0 -11 -7 -18z m1053 -143 c3 -8 2 -12 -4 -9 -6 3 -10 10
-10 16 0 14 7 11 14 -7z m-1364 -197 c0 -4 4 -6 8 -3 5 3 8 -5 8 -17 -1 -13 4
-21 12 -19 8 1 10 -2 7 -8 -8 -13 14 -72 24 -66 3 2 6 -9 7 -25 l1 -29 -88 0
c-49 0 -89 2 -89 5 0 3 20 46 45 95 48 96 51 105 33 94 -7 -5 -8 -3 -3 6 6 10
11 9 22 -5 7 -11 13 -23 13 -28z m1688 -93 c4 2 7 -6 8 -17 0 -12 4 -30 8 -39
7 -16 0 -18 -82 -18 -81 0 -90 2 -95 20 -3 11 -1 18 4 14 12 -7 30 41 23 63
-4 13 -3 15 4 5 7 -10 12 -6 21 17 7 16 10 35 5 42 -5 8 -3 9 5 5 8 -5 14 0
18 15 5 19 11 12 40 -45 18 -37 37 -65 41 -62z m-1803 -34 c3 -5 1 -10 -4 -10
-6 0 -11 5 -11 10 0 6 2 10 4 10 3 0 8 -4 11 -10z m1845 -4 c0 -3 -4 -8 -10
-11 -5 -3 -10 -1 -10 4 0 6 5 11 10 11 6 0 10 -2 10 -4z m-714 -301 c8 -20 19
-33 24 -30 6 4 7 -1 3 -11 -5 -13 -3 -15 7 -9 9 6 11 4 5 -4 -8 -15 24 -93 35
-86 5 3 6 -4 3 -15 -5 -18 -14 -20 -88 -20 l-82 0 1 29 c1 16 5 29 9 28 11 -3
67 125 62 141 -10 28 7 9 21 -23z m210 23 c4 -7 3 -8 -4 -4 -18 11 -15 1 23
-75 22 -43 40 -67 47 -63 7 5 8 3 3 -5 -9 -15 34 -113 46 -105 5 3 6 -3 2 -12
-5 -13 -3 -15 7 -9 9 6 11 4 5 -4 -8 -13 23 -93 34 -87 3 2 6 -9 7 -25 l1 -29
-187 0 c-179 0 -188 1 -193 20 -3 13 -1 18 6 13 7 -4 8 0 4 11 -4 9 -3 15 2
12 11 -7 35 50 26 64 -3 6 -1 9 7 8 8 -2 13 6 12 19 0 12 3 20 6 18 11 -7 43
72 35 86 -6 8 -4 10 5 4 10 -6 12 -4 7 8 -4 10 -2 16 6 14 8 -1 11 9 10 28 -2
19 1 25 6 17 6 -10 11 -5 20 17 7 16 10 35 5 42 -4 8 -3 10 4 5 8 -4 16 3 22
18 11 29 15 31 26 14z m199 3 c-8 -14 16 -61 28 -54 6 4 7 1 3 -6 -10 -15 13
-73 25 -65 5 3 6 -3 2 -12 -3 -10 -2 -15 3 -12 5 3 9 -7 10 -23 l1 -29 -83 0
c-46 0 -84 2 -84 4 0 2 7 20 15 39 8 20 12 44 9 54 -4 13 -3 14 3 5 7 -9 17 4
37 47 15 34 29 61 32 61 3 0 3 -4 -1 -9z m-1203 -55 c7 5 8 3 3 -5 -8 -13 23
-93 34 -87 3 2 6 -9 7 -25 l1 -29 -82 0 -82 0 1 29 c1 16 4 27 7 25 10 -6 19
24 13 44 -4 12 -3 14 4 4 7 -10 12 -6 21 17 7 16 10 35 5 42 -5 8 -3 9 5 5 8
-5 15 0 18 15 6 23 7 22 20 -9 8 -20 18 -30 25 -26z m202 21 c4 4 4 1 1 -8 -8
-21 44 -131 57 -123 7 5 8 2 3 -5 -8 -14 24 -93 35 -86 3 2 6 -6 6 -18 -1 -13
4 -21 12 -19 8 1 10 -2 7 -8 -8 -13 14 -72 24 -65 4 2 7 -6 7 -18 -1 -13 4
-21 12 -19 8 1 11 -2 7 -8 -4 -6 -78 -10 -199 -10 l-193 0 1 29 c1 16 4 27 7
25 11 -6 52 93 44 107 -6 8 -4 10 5 4 10 -6 12 -4 7 9 -4 9 -3 15 1 12 13 -8
86 149 77 164 -5 9 -4 11 3 6 7 -4 18 7 29 29 16 34 18 34 28 15 6 -11 14 -17
19 -13z m209 -20 c5 4 5 1 2 -8 -7 -18 33 -112 45 -104 4 3 6 -4 3 -15 -5 -18
-14 -20 -88 -20 l-82 0 1 29 c1 16 4 27 7 25 11 -6 62 113 54 126 -5 9 -4 11
3 6 7 -4 12 -1 12 6 1 7 9 -2 18 -20 10 -18 21 -29 25 -25z m183 31 c3 -10 9
-16 13 -14 4 3 7 -5 7 -17 -1 -12 4 -21 11 -20 7 2 10 -3 7 -11 -7 -19 66
-177 79 -169 6 4 7 1 2 -6 -9 -15 34 -113 46 -105 5 3 6 -1 3 -9 -7 -18 40
-110 51 -100 4 5 5 2 0 -6 -10 -17 34 -113 48 -104 6 4 7 1 2 -6 -10 -17 35
-112 48 -104 6 4 7 1 2 -6 -7 -12 36 -130 58 -158 7 -10 -71 -13 -385 -13
l-395 0 1 29 c1 16 4 27 7 25 11 -6 32 54 23 67 -4 7 -3 10 3 6 14 -9 68 117
58 134 -5 8 -4 10 3 5 15 -9 34 37 26 61 -4 13 -3 15 4 5 7 -10 12 -6 21 17 7
16 10 35 5 42 -4 7 -3 10 3 6 14 -9 75 126 67 149 -4 14 -3 15 4 6 7 -10 12
-6 21 17 7 16 10 35 5 42 -4 7 -3 10 3 6 13 -8 68 107 58 123 -5 8 -4 11 3 6
14 -8 35 30 28 50 -4 10 -2 12 6 8 8 -5 9 -2 5 9 -4 10 -2 16 6 14 7 -1 12 7
11 19 0 26 24 27 32 2z m428 -14 c3 -8 2 -12 -4 -9 -6 3 -10 10 -10 16 0 14 7
11 14 -7z m40 -80 c3 -8 2 -12 -4 -9 -6 3 -10 10 -10 16 0 14 7 11 14 -7z
m-320 -190 c3 -8 2 -12 -4 -9 -6 3 -10 10 -10 16 0 14 7 11 14 -7z m-559 -133
c-7 -13 16 -62 26 -55 5 3 6 -3 2 -12 -5 -13 -3 -15 7 -9 9 5 11 4 6 -4 -9
-15 3 -53 15 -46 5 3 6 -2 2 -11 -4 -12 -3 -15 5 -10 8 5 10 1 5 -10 -4 -10
-2 -15 3 -11 5 3 10 -3 10 -14 0 -17 -8 -19 -93 -19 -74 0 -93 3 -93 14 0 8
-3 16 -7 19 -5 2 -2 2 4 1 16 -4 56 73 49 92 -3 8 -1 12 4 9 5 -3 18 12 30 35
11 22 23 40 26 40 3 0 3 -4 -1 -9z m894 -193 c1 -5 -39 -8 -88 -8 l-88 0 1 29
c1 16 6 29 11 28 6 -1 9 12 8 28 -2 19 1 25 6 17 6 -10 11 -5 20 17 7 16 10
35 5 42 -5 8 -3 9 6 4 10 -6 12 -4 7 9 -4 10 -3 15 3 11 6 -3 10 0 11 7 0 12
97 -169 98 -184z m-968 89 c-10 -9 -11 -8 -5 6 3 10 9 15 12 12 3 -3 0 -11 -7
-18z m953 -13 c3 -8 2 -12 -4 -9 -6 3 -10 10 -10 16 0 14 7 11 14 -7z m26 -49
c14 -19 14 -19 -2 -6 -10 7 -18 18 -18 24 0 6 1 8 3 6 1 -2 9 -13 17 -24z
m-484 -287 c4 -7 3 -8 -4 -4 -14 8 -15 4 -6 -18 3 -9 9 -14 13 -11 4 2 7 -6 7
-18 -1 -12 4 -21 11 -20 7 2 10 -3 7 -10 -7 -18 25 -89 36 -82 5 3 7 0 5 -8
-8 -19 44 -129 57 -121 7 5 8 2 4 -5 -10 -15 13 -73 25 -65 5 3 6 -3 2 -12 -4
-11 -3 -15 4 -11 7 5 9 0 6 -13 -5 -19 -14 -20 -195 -20 -177 0 -190 1 -182
18 4 9 8 27 8 39 1 11 4 19 7 17 11 -6 42 74 34 87 -5 7 -4 10 2 6 14 -9 37
48 27 64 -4 8 -3 10 4 5 7 -4 30 30 62 94 28 55 52 100 55 100 2 0 7 -5 11
-12z m189 -24 c9 -22 19 -33 26 -28 8 5 9 3 4 -5 -8 -15 34 -113 46 -106 4 3
5 -4 2 -15 -5 -18 -14 -20 -88 -20 l-82 0 1 29 c1 16 4 27 7 25 10 -6 19 24
13 44 -4 12 -3 14 4 4 7 -10 12 -6 21 17 7 16 10 35 5 42 -5 8 -3 9 6 4 10 -6
12 -4 7 9 -5 11 -3 15 5 10 8 -5 9 -2 5 9 -13 33 3 16 18 -19z m-399 11 c-7
-20 4 -46 17 -38 6 4 7 1 2 -6 -8 -13 23 -93 34 -87 3 2 6 -9 7 -25 l1 -29
-82 0 -82 0 1 29 c1 16 5 26 10 23 5 -3 6 2 3 12 -4 9 -3 14 2 11 12 -7 24 31
15 46 -4 8 -3 9 4 5 13 -8 36 30 28 49 -3 9 1 12 15 10 10 -2 19 0 19 6 0 5 3
9 6 9 3 0 4 -7 0 -15z m155 -28 c-10 -9 -11 -8 -5 6 3 10 9 15 12 12 3 -3 0
-11 -7 -18z m-30 -60 c-10 -9 -11 -8 -5 6 3 10 9 15 12 12 3 -3 0 -11 -7 -18z
m78 -369 c7 -19 15 -27 22 -22 8 5 9 3 4 -5 -8 -13 23 -93 34 -87 3 2 6 -9 7
-25 l1 -29 -88 0 c-49 0 -89 2 -89 5 0 3 18 42 41 86 22 45 38 87 36 93 -3 7
1 13 9 13 7 0 18 -13 23 -29z m-48 -11 c-10 -9 -11 -8 -5 6 3 10 9 15 12 12 3
-3 0 -11 -7 -18z m-50 -100 c-10 -9 -11 -8 -5 6 3 10 9 15 12 12 3 -3 0 -11
-7 -18z m-16 -17 c3 -5 1 -10 -4 -10 -6 0 -11 5 -11 10 0 6 2 10 4 10 3 0 8
-4 11 -10z"/>
<path d="M1855 3207 c-46 -26 -80 -73 -96 -131 -12 -45 -6 -178 11 -236 9 -31
8 -37 -12 -50 -94 -62 -125 -186 -74 -295 36 -79 105 -125 188 -125 21 0 29
-7 37 -32 32 -100 43 -237 22 -276 -17 -31 -48 -36 -93 -16 -48 22 -73 11 -73
-32 0 -91 191 -50 240 52 24 51 30 143 16 244 l-12 81 44 42 c81 80 97 179 44
284 -30 62 -85 100 -156 110 -52 8 -55 10 -68 48 -8 22 -21 79 -29 127 -13 77
-13 91 0 122 19 46 39 53 93 33 33 -12 50 -14 64 -7 21 12 25 50 7 68 -20 20
-109 14 -153 -11z m134 -468 c84 -65 95 -187 23 -252 -19 -18 -20 -17 -41 65
-12 46 -31 110 -42 142 -10 33 -19 64 -19 69 0 14 50 -2 79 -24z m-179 -66 c7
-32 25 -100 40 -150 16 -51 24 -93 19 -93 -5 0 -24 6 -42 14 -65 27 -115 115
-104 183 6 34 50 103 66 103 4 0 14 -26 21 -57z"/>
</g>
</svg>
